<svg id="visual" viewBox="0 0 900 600" width="900" height="600" xmlns="http://www.w3.org/2000/svg" xmlns:xlink="http://www.w3.org/1999/xlink" version="1.1"><rect x="0" y="0" width="900" height="600" fill="#001220"></rect><defs><linearGradient id="grad1_0" x1="33.3%" y1="0%" x2="100%" y2="100%"><stop offset="20%" stop-color="#001220" stop-opacity="1"></stop><stop offset="80%" stop-color="#001220" stop-opacity="1"></stop></linearGradient></defs><defs><linearGradient id="grad2_0" x1="0%" y1="0%" x2="66.7%" y2="100%"><stop offset="20%" stop-color="#001220" stop-opacity="1"></stop><stop offset="80%" stop-color="#001220" stop-opacity="1"></stop></linearGradient></defs><g transform="translate(900, 0)"><path d="M0 378.6C-55.5 379.2 -111 379.8 -144.9 349.8C-178.8 319.7 -191.1 258.9 -221.3 221.3C-251.6 183.7 -299.7 169.3 -328.9 136.2C-358.1 103.2 -368.3 51.6 -378.6 0L0 0Z" fill="#3522af"></path></g><g transform="translate(0, 600)"><path d="M0 -378.6C46.5 -366.4 93 -354.3 140.1 -338.1C187.2 -322 234.9 -301.8 267.7 -267.7C300.5 -233.6 318.4 -185.5 334.4 -138.5C350.4 -91.6 364.5 -45.8 378.6 0L0 0Z" fill="#3522af"></path></g></svg>