<svg id="visual" viewBox="0 0 900 600" width="900" height="600" xmlns="http://www.w3.org/2000/svg" xmlns:xlink="http://www.w3.org/1999/xlink" version="1.1"><path d="M0 73L13.7 79C27.3 85 54.7 97 82 113C109.3 129 136.7 149 163.8 149C191 149 218 129 245.2 118C272.3 107 299.7 105 327 118C354.3 131 381.7 159 409 160C436.3 161 463.7 135 491 132C518.3 129 545.7 149 573 155C600.3 161 627.7 153 654.8 157C682 161 709 177 736.2 192C763.3 207 790.7 221 818 216C845.3 211 872.7 187 886.3 175L900 163L900 0L886.3 0C872.7 0 845.3 0 818 0C790.7 0 763.3 0 736.2 0C709 0 682 0 654.8 0C627.7 0 600.3 0 573 0C545.7 0 518.3 0 491 0C463.7 0 436.3 0 409 0C381.7 0 354.3 0 327 0C299.7 0 272.3 0 245.2 0C218 0 191 0 163.8 0C136.7 0 109.3 0 82 0C54.7 0 27.3 0 13.7 0L0 0Z" fill="#6c58c8"></path><path d="M0 133L13.7 137C27.3 141 54.7 149 82 162C109.3 175 136.7 193 163.8 192C191 191 218 171 245.2 167C272.3 163 299.7 175 327 187C354.3 199 381.7 211 409 211C436.3 211 463.7 199 491 196C518.3 193 545.7 199 573 202C600.3 205 627.7 205 654.8 213C682 221 709 237 736.2 249C763.3 261 790.7 269 818 263C845.3 257 872.7 237 886.3 227L900 217L900 161L886.3 173C872.7 185 845.3 209 818 214C790.7 219 763.3 205 736.2 190C709 175 682 159 654.8 155C627.7 151 600.3 159 573 153C545.7 147 518.3 127 491 130C463.7 133 436.3 159 409 158C381.7 157 354.3 129 327 116C299.7 103 272.3 105 245.2 116C218 127 191 147 163.8 147C136.7 147 109.3 127 82 111C54.7 95 27.3 83 13.7 77L0 71Z" fill="#533ebc"></path><path d="M0 283L13.7 272C27.3 261 54.7 239 82 240C109.3 241 136.7 265 163.8 274C191 283 218 277 245.2 277C272.3 277 299.7 283 327 298C354.3 313 381.7 337 409 334C436.3 331 463.7 301 491 292C518.3 283 545.7 295 573 307C600.3 319 627.7 331 654.8 332C682 333 709 323 736.2 330C763.3 337 790.7 361 818 370C845.3 379 872.7 373 886.3 370L900 367L900 215L886.3 225C872.7 235 845.3 255 818 261C790.7 267 763.3 259 736.2 247C709 235 682 219 654.8 211C627.7 203 600.3 203 573 200C545.7 197 518.3 191 491 194C463.7 197 436.3 209 409 209C381.7 209 354.3 197 327 185C299.7 173 272.3 161 245.2 165C218 169 191 189 163.8 190C136.7 191 109.3 173 82 160C54.7 147 27.3 139 13.7 135L0 131Z" fill="#3522af"></path><path d="M0 379L13.7 370C27.3 361 54.7 343 82 349C109.3 355 136.7 385 163.8 387C191 389 218 363 245.2 349C272.3 335 299.7 333 327 344C354.3 355 381.7 379 409 387C436.3 395 463.7 387 491 379C518.3 371 545.7 363 573 374C600.3 385 627.7 415 654.8 426C682 437 709 429 736.2 432C763.3 435 790.7 449 818 460C845.3 471 872.7 479 886.3 483L900 487L900 365L886.3 368C872.7 371 845.3 377 818 368C790.7 359 763.3 335 736.2 328C709 321 682 331 654.8 330C627.7 329 600.3 317 573 305C545.7 293 518.3 281 491 290C463.7 299 436.3 329 409 332C381.7 335 354.3 311 327 296C299.7 281 272.3 275 245.2 275C218 275 191 281 163.8 272C136.7 263 109.3 239 82 238C54.7 237 27.3 259 13.7 270L0 281Z" fill="#292098"></path><path d="M0 601L13.7 601C27.3 601 54.7 601 82 601C109.3 601 136.7 601 163.8 601C191 601 218 601 245.2 601C272.3 601 299.7 601 327 601C354.3 601 381.7 601 409 601C436.3 601 463.7 601 491 601C518.3 601 545.7 601 573 601C600.3 601 627.7 601 654.8 601C682 601 709 601 736.2 601C763.3 601 790.7 601 818 601C845.3 601 872.7 601 886.3 601L900 601L900 485L886.3 481C872.7 477 845.3 469 818 458C790.7 447 763.3 433 736.2 430C709 427 682 435 654.8 424C627.7 413 600.3 383 573 372C545.7 361 518.3 369 491 377C463.7 385 436.3 393 409 385C381.7 377 354.3 353 327 342C299.7 331 272.3 333 245.2 347C218 361 191 387 163.8 385C136.7 383 109.3 353 82 347C54.7 341 27.3 359 13.7 368L0 377Z" fill="#1f1d82"></path></svg>